<?xml version="1.0" standalone="no"?>
<!DOCTYPE svg PUBLIC "-//W3C//DTD SVG 20010904//EN"
 "http://www.w3.org/TR/2001/REC-SVG-20010904/DTD/svg10.dtd">
<svg version="1.0" xmlns="http://www.w3.org/2000/svg"
 width="300.000000pt" height="197.000000pt" viewBox="0 0 300.000000 197.000000"
 preserveAspectRatio="xMidYMid meet">
<metadata>
Created by potrace 1.10, written by Peter Selinger 2001-2011
</metadata>
<g transform="translate(0.000000,197.000000) scale(0.100000,-0.100000)"
fill="#000000" stroke="none">
<path d="M1226 1270 c-28 -11 -57 -26 -65 -35 -27 -27 45 -19 82 9 18 13 48
29 67 34 l35 10 -35 1 c-19 0 -57 -9 -84 -19z"/>
<path d="M1799 1213 c-295 -3 -328 -5 -342 -21 -8 -9 -37 -72 -65 -139 l-49
-123 34 30 c18 16 43 32 56 35 53 12 143 22 151 17 12 -7 149 -11 160 -5 4 3
3 9 -4 13 -9 6 -9 13 -1 29 16 29 71 30 71 1 0 -11 -7 -23 -16 -27 -23 -9 3
-23 42 -23 40 0 46 7 29 34 -7 11 -13 33 -13 48 0 24 6 29 36 34 24 5 37 3 40
-5 2 -6 17 -18 33 -26 31 -17 39 -49 13 -59 -27 -10 -34 -7 -44 19 -11 29 -28
33 -37 8 -8 -21 31 -53 66 -53 37 0 71 26 71 55 0 26 -34 67 -63 78 -10 4 -15
11 -12 17 8 13 48 13 62 -1 8 -8 13 -8 17 0 4 6 34 11 66 11 32 0 62 5 65 11
5 7 -12 10 -54 8 -37 -2 -66 2 -73 9 -9 9 12 12 93 12 57 0 111 5 119 10 10 7
-7 9 -55 7 -38 -1 -217 -3 -396 -4z m131 -28 c-14 -17 -85 -21 -95 -6 -5 9 23
15 84 19 20 2 22 0 11 -13z m-386 -26 c3 -17 6 -42 6 -56 0 -13 4 -21 10 -18
5 3 7 26 3 52 -6 44 -5 46 16 40 11 -3 34 0 51 6 16 6 32 8 36 5 3 -4 -2 -40
-11 -79 l-18 -72 -19 23 c-11 14 -15 27 -10 34 5 6 12 25 15 41 8 35 2 28 -44
-52 -26 -47 -33 -53 -62 -53 -30 1 -31 1 -13 15 11 8 15 15 9 15 -8 0 -10 18
-6 55 3 30 3 55 0 55 -3 0 -13 -34 -22 -75 -13 -62 -20 -75 -36 -75 -15 0 -19
7 -19 33 0 24 3 28 10 17 8 -12 10 -9 10 14 0 43 39 106 66 106 16 0 23 -8 28
-31z m241 21 c-3 -5 -21 -10 -40 -10 -19 0 -37 5 -40 10 -4 6 12 10 40 10 28
0 44 -4 40 -10z m45 -41 c0 -16 -4 -29 -9 -29 -10 0 -22 51 -14 63 9 15 23 -5
23 -34z m90 0 c0 -5 -18 -9 -40 -9 -48 0 -54 17 -7 22 36 4 47 1 47 -13z
m-160 2 c0 -5 -7 -14 -15 -21 -11 -9 -15 -10 -15 -1 0 8 -8 10 -20 6 -26 -8
-48 4 -29 16 18 11 79 11 79 0z m-25 -51 c-3 -5 -22 -10 -41 -10 -19 0 -34 5
-34 10 0 6 18 10 41 10 24 0 38 -4 34 -10z m-21 -35 c-7 -16 -64 -21 -64 -6 0
12 18 19 47 20 16 1 21 -3 17 -14z"/>
<path d="M1124 1201 c-13 -13 9 -16 133 -19 75 -1 138 -3 139 -5 2 -2 -5 -32
-16 -67 -11 -35 -18 -65 -16 -67 2 -2 16 31 32 74 16 43 31 81 32 86 4 8 -295
6 -304 -2z"/>
<path d="M1061 1123 c-22 -26 -38 -49 -36 -51 2 -2 24 12 48 32 38 31 56 38
133 50 l89 14 -97 1 -96 1 -41 -47z"/>
<path d="M1260 1136 c-43 -11 -47 -15 -98 -110 -30 -53 -52 -99 -50 -101 2 -2
30 38 62 89 56 89 62 94 115 114 61 22 43 27 -29 8z"/>
<path d="M1156 1123 c-16 -3 -43 -15 -60 -28 -48 -36 -112 -65 -143 -65 -46 0
-100 -19 -132 -46 -36 -30 -115 -170 -107 -191 5 -12 22 -14 87 -12 68 3 82 1
90 -14 6 -9 24 -24 41 -33 42 -22 90 -11 123 27 21 26 25 39 23 85 -1 31 -8
60 -16 66 -7 6 -37 13 -66 15 -46 4 -57 1 -85 -22 -21 -19 -33 -39 -37 -66
l-7 -39 -69 0 c-81 0 -80 -2 -19 88 61 90 66 92 196 109 131 16 163 31 196 96
11 20 18 36 17 36 -2 -1 -16 -4 -32 -6z m-138 -232 c4 -11 -2 -13 -25 -8 -39
8 -73 -16 -73 -50 0 -31 26 -63 52 -63 28 0 60 37 56 67 -4 31 18 43 27 14 25
-79 -80 -137 -140 -76 -53 53 -13 139 62 133 20 -2 39 -9 41 -17z m-28 -31 c0
-5 -8 -13 -17 -19 -14 -8 -15 -12 -6 -22 10 -10 14 -9 19 4 9 23 24 21 24 -3
0 -28 -49 -39 -67 -15 -17 24 -16 30 3 49 17 18 44 21 44 6z"/>
<path d="M1405 888 c0 -61 1 -63 28 -66 38 -5 56 13 63 60 4 21 11 41 15 44
15 9 10 24 -9 24 -14 0 -18 -9 -19 -40 -2 -48 -18 -80 -40 -80 -13 0 -15 8
-10 47 3 26 10 49 16 51 22 7 10 22 -17 22 -27 0 -28 -1 -27 -62z"/>
<path d="M1542 938 c-19 -19 -14 -46 13 -64 29 -19 32 -32 9 -41 -10 -4 -20 0
-26 10 -11 21 -28 22 -28 2 0 -16 42 -30 65 -21 8 3 25 1 37 -4 17 -6 -4 -9
-72 -11 -52 -1 -114 -3 -137 -3 l-42 -2 6 43 6 43 -114 -2 c-84 -2 -105 -4
-79 -10 19 -5 65 -6 102 -3 36 3 68 2 71 -2 2 -4 0 -23 -5 -40 l-9 -33 -111 0
c-61 0 -109 -3 -106 -6 8 -7 963 -5 982 2 8 3 17 12 20 20 5 13 -20 14 -193 8
-195 -7 -199 -7 -210 14 -6 11 -11 36 -11 54 0 18 -5 40 -10 48 -9 13 -13 11
-30 -10 -10 -14 -27 -42 -36 -62 -19 -42 -34 -49 -34 -16 0 12 -12 32 -27 44
-26 21 -26 23 -9 30 11 4 21 2 26 -6 4 -7 13 -9 19 -5 9 5 9 10 0 21 -14 17
-51 18 -67 2z m146 -94 c-5 -26 -37 -42 -47 -25 -14 22 -2 41 26 41 17 0 24
-5 21 -16z"/>
<path d="M842 914 c-15 -10 -22 -25 -22 -46 l0 -31 23 34 c36 53 39 59 30 59
-5 0 -19 -7 -31 -16z"/>
<path d="M1776 884 c-13 -35 -7 -43 31 -40 29 1 38 7 40 21 3 19 3 19 -6 0 -9
-19 -10 -19 -10 -1 -1 19 -1 19 -22 0 -22 -19 -22 -19 -17 9 6 29 -6 37 -16
11z"/>
<path d="M2014 869 c-3 -6 -1 -16 5 -22 9 -9 11 -8 5 7 -5 14 -3 17 12 14 10
-2 18 -10 16 -17 -1 -7 3 -11 9 -9 7 2 13 12 15 21 2 13 -5 17 -26 17 -16 0
-32 -5 -36 -11z"/>
</g>
</svg>
